<svg xmlns="http://www.w3.org/2000/svg" width="100%" height="100%" viewBox="0 0 27.445 31.366">
  <path id="calendar-days-sharp-thin" d="M7.842.49V0h-.98V3.921H0V31.366H27.445V3.921H20.584V0H19.6V3.921H7.842ZM26.465,17.643H18.624V11.762h7.842Zm-8.822-5.881v5.881H9.8V11.762Zm-8.822,0v5.881H.98V11.762ZM.98,18.624H8.822V24.5H.98Zm0,6.861H8.822v4.9H.98Zm8.822,4.9v-4.9h7.842v4.9Zm8.822,0v-4.9h7.842v4.9ZM26.465,24.5H18.624V18.624h7.842ZM6.861,4.9V7.842h.98V4.9H19.6V7.842h.98V4.9h5.881v5.881H.98V4.9ZM17.644,24.5H9.8V18.624h7.842Z" fill="#009fe3"/>
</svg>
