<svg xmlns="http://www.w3.org/2000/svg" width="100%" height="100%" viewBox="0 0 31.366 31.366">
  <path id="circle-question-sharp-thin" d="M30.386,15.683a14.7,14.7,0,1,0-14.7,14.7,14.7,14.7,0,0,0,14.7-14.7ZM0,15.683A15.683,15.683,0,1,1,15.683,31.366,15.683,15.683,0,0,1,0,15.683Zm10.292-3.431a3.433,3.433,0,0,1,3.431-3.431h3.443A3.909,3.909,0,0,1,19.316,16l-3.143,2.071v2.028h-.98V17.533l.221-.147,3.363-2.218A2.928,2.928,0,0,0,17.166,9.8H13.723a2.45,2.45,0,0,0-2.45,2.45v.4h-.98ZM14.7,23.525v-1.96h1.96v1.96Z" fill="#009fe3"/>
</svg>
