<svg xmlns="http://www.w3.org/2000/svg" width="100%" height="100%" viewBox="0 0 31.366 27.445">
  <path id="comment-dots-sharp-thin" d="M4.4,53.1l.221-.588-.447-.447a10.364,10.364,0,0,1-3.2-7.321c0-6.316,6.384-11.762,14.7-11.762s14.7,5.446,14.7,11.762S24,56.5,15.683,56.5a17.951,17.951,0,0,1-5.207-.76l-.282-.086-.282.086L2.591,57.938ZM.98,59.445l1.182-.355,8.031-2.408a18.844,18.844,0,0,0,5.489.8c8.662,0,15.683-5.7,15.683-12.743S24.346,32,15.683,32,0,37.7,0,44.743a11.318,11.318,0,0,0,3.486,8.013L1.415,58.294Zm7.842-14.7a.98.98,0,1,1-.98-.98A.98.98,0,0,1,8.822,44.743Zm-.98-1.96a1.96,1.96,0,1,0,1.96,1.96A1.96,1.96,0,0,0,7.842,42.782Zm8.822,1.96a.98.98,0,1,1-.98-.98A.98.98,0,0,1,16.663,44.743Zm-.98-1.96a1.96,1.96,0,1,0,1.96,1.96A1.96,1.96,0,0,0,15.683,42.782Zm7.842,2.941a.98.98,0,1,1,.98-.98A.98.98,0,0,1,23.525,45.723Zm-1.96-.98a1.96,1.96,0,1,0,1.96-1.96A1.96,1.96,0,0,0,21.564,44.743Z" transform="translate(0 -32)" fill="#009fe3"/>
</svg>
