<svg xmlns="http://www.w3.org/2000/svg" width="100%" height="100%" viewBox="0 0 31.366 31.366">
  <path id="envelope-open-text-sharp-thin" d="M15.683,24.3.98,14.188V12.252l2.941-2.205v3.78l.98.674V4.9H26.465v9.6l.98-.674v-3.78l2.941,2.205v1.936ZM3.921,4.9V8.822L0,11.762v19.6H31.366v-19.6L27.445,8.822v-4.9H20.909L15.683,0,10.457,3.921H3.921ZM15.683,1.225l3.6,2.7H12.087Zm0,24.26,14.7-10.108V30.386H.98V15.377ZM10.292,9.8H9.8v.98H21.564V9.8H10.292Zm0,4.9H9.8v.98H21.564V14.7H10.292Z" fill="#009fe3"/>
</svg>
