<svg xmlns="http://www.w3.org/2000/svg" width="100%" height="100%" viewBox="0 0 19.665 27.445">
  <path id="euro-sign-sharp-thin" d="M2.187,42.782a13.454,13.454,0,0,0-.227,2.45v.98a13.454,13.454,0,0,0,.227,2.45H0v.98H2.408a13.247,13.247,0,0,0,12.785,9.8h4.472v-.98H15.193A12.267,12.267,0,0,1,3.425,49.644H17.644v-.98H3.186a12.4,12.4,0,0,1-.245-2.45v-.98a12.4,12.4,0,0,1,.245-2.45H17.644V41.8H3.425A12.267,12.267,0,0,1,15.193,32.98h4.472V32H15.193A13.247,13.247,0,0,0,2.408,41.8H0v.98Z" transform="translate(0 -32)" fill="#009fe3"/>
</svg>
