<svg xmlns="http://www.w3.org/2000/svg" width="23.524" height="31.366" viewBox="0 0 23.524 31.366">
  <path id="file-spreadsheet-sharp-thin" d="M.98.98H12.742v9.8h9.8v19.6H.98Zm12.742.4L22.14,9.8H13.723V1.385Zm0-1.385H0V31.366H23.524V9.8ZM4.9,23.524h2.45v2.941H4.9Zm0-.98V19.6h2.45v2.941Zm3.431,3.921V23.524h2.941v2.941Zm0-3.921V19.6h2.941v2.941Zm3.921,3.921V23.524h2.941v2.941Zm0-6.861h2.941v2.941H12.252Zm3.921,6.861V23.524h2.45v2.941Zm0-3.921V19.6h2.45v2.941Zm3.431.49V13.723H3.921V27.445H19.6V23.034Zm-3.921-4.411H4.9V14.7H18.623v3.921Z" fill="#1a7bab"/>
</svg>
