<svg xmlns="http://www.w3.org/2000/svg" width="100%" height="100%" viewBox="0 0 29.896 31.366">
  <path id="file-pdf-sharp-thin" d="M.98,30.386H6.861v.98H0V0H13.723l9.8,9.8v8.822h-.98V10.782h-9.8V.98H.98ZM22.14,9.8,13.723,1.385V9.8ZM10.782,22.544h1.96a2.941,2.941,0,1,1,0,5.881h-1.47v2.941h-.98V22.544Zm1.96,4.9a1.96,1.96,0,1,0,0-3.921h-1.47v3.921Zm5.881-4.9h1.96a2.45,2.45,0,0,1,2.45,2.45v3.921a2.45,2.45,0,0,1-2.45,2.45h-2.45V22.544Zm.49,7.842h1.47a1.467,1.467,0,0,0,1.47-1.47V24.995a1.467,1.467,0,0,0-1.47-1.47h-1.47Zm6.861-7.842H29.9v.98H26.955v2.941H29.9v.98H26.955v3.921h-.98V22.544Z" fill="#009fe3"/>
</svg>
