<svg xmlns="http://www.w3.org/2000/svg" width="100%" height="100%" viewBox="0 0 35.287 31.366">
  <path id="file-circle-exclamation-sharp-thin" d="M.98,30.386H19.065a10.88,10.88,0,0,0,1.2.98H0V0H13.723l9.8,9.8v2.365a9.214,9.214,0,0,0-.98.331V10.782h-9.8V.98H.98ZM22.14,9.8,13.723,1.385V9.8ZM34.307,22.544a7.842,7.842,0,1,0-7.842,7.842A7.842,7.842,0,0,0,34.307,22.544Zm-16.663,0a8.822,8.822,0,1,1,8.822,8.822A8.822,8.822,0,0,1,17.644,22.544ZM27.2,27.2H25.73V25.73H27.2Zm-.245-10.047v6.861h-.98V17.153Z" fill="#009fe3"/>
</svg>
