<svg xmlns="http://www.w3.org/2000/svg" width="100%" height="100%" viewBox="0 0 27.445 17.643">
  <path id="grid-horizontal-sharp-thin" d="M.98,128.98v5.881H6.861V128.98ZM0,128H7.842v7.842H0V128Zm.98,10.782v5.881H6.861v-5.881ZM0,137.8H7.842v7.842H0V137.8Zm16.663-8.822H10.782v5.881h5.881ZM10.782,128h6.861v7.842H9.8V128Zm0,10.782v5.881h5.881v-5.881Zm-.98-.98h7.842v7.842H9.8V137.8Zm16.663-8.822H20.584v5.881h5.881ZM20.584,128h6.861v7.842H19.6V128Zm0,10.782v5.881h5.881v-5.881Zm-.98-.98h7.842v7.842H19.6V137.8Z" transform="translate(0 -128)" fill="#009fe3"/>
</svg>
