<svg xmlns="http://www.w3.org/2000/svg" width="100%" height="100%" viewBox="0 0 35.287 27.445">
  <path id="id-card-sharp-thin" d="M.98,32.98V36.9H34.307V32.98Zm0,4.9V58.465H34.307V37.881ZM0,32H35.287V59.445H0V32ZM11.762,47.683a2.941,2.941,0,1,0-2.941-2.941A2.941,2.941,0,0,0,11.762,47.683Zm0-6.861a3.921,3.921,0,1,1-3.921,3.921A3.921,3.921,0,0,1,11.762,40.822Zm-5.5,14.7H5.226l1.636-4.9h9.8l1.636,4.9H17.264l-1.3-3.921H7.566Zm15.3-11.762h9.8v.98h-9.8Zm0,3.921h9.8v.98h-9.8Zm0,3.921h9.8v.98h-9.8Z" transform="translate(0 -32)" fill="#009fe3"/>
</svg>
