<svg xmlns="http://www.w3.org/2000/svg" width="100%" height="100%" viewBox="0 0 39.208 27.439">
  <path id="money-check-pen-sharp-thin" d="M34.307,64.98H.98V86.544H20.149l-.141.98H0V64H35.287v6.641l-.711.711h0l-.27.27ZM23.525,78.7v.98H5.881V78.7ZM5.881,72.822H29.406v.98H5.881Zm28.6.974.692.692,3.339,3.339.692.686-.692.692L27.158,90.563l-4.576.711-1.017.165.159-1.017.711-4.576ZM23.353,86.312l-.613,3.951,3.951-.613L35.134,81.2,31.8,77.87Zm14.47-7.8-3.339-3.339-1.991,2,3.339,3.339,1.991-1.991Z" transform="translate(0 -64)" fill="#009fe3"/>
</svg>
