<svg xmlns="http://www.w3.org/2000/svg" width="100%" height="100%" viewBox="0 0 35.287 29.406">
  <path id="square-a-lock-sharp-thin" d="M.98,32.98H26.465v7.143a7.333,7.333,0,0,1,.98-.214V32H0V59.445H19.6v-.98H.98Zm13.184,5.183-.135-.282H13.41l-.135.282-7.284,15.4H7.076l1.856-3.921h9.581l1.09,2.3V49.65Zm3.89,10.5H9.391l4.331-9.146Zm10.372-5.881a2.941,2.941,0,0,1,2.941,2.941v3.921H25.485V45.723A2.941,2.941,0,0,1,28.426,42.782ZM24.5,45.723v3.921H21.564V61.406H35.287V49.644H32.346V45.723a3.921,3.921,0,0,0-7.842,0Zm-1.96,4.9H34.307v9.8H22.544Z" transform="translate(0 -32)" fill="#009fe3"/>
</svg>
