<svg xmlns="http://www.w3.org/2000/svg" width="100%" height="100%" viewBox="0 0 39.202 31.366">
  <path id="truck-sharp-thin" d="M.98.98V24.5H4.123a5.394,5.394,0,0,1,10.378,0h10V.98Zm2.965,24.5H0V0H25.485V5.881H30.1l.141.141L37.1,12.883l.141.141V24.5H39.2v.98H35.263c.012.159.025.325.025.49a5.391,5.391,0,0,1-10.782,0,4.3,4.3,0,0,1,.025-.49H14.678c.012.159.025.325.025.49a5.391,5.391,0,0,1-10.782,0A4.3,4.3,0,0,1,3.945,25.485Zm21.54-12.252h10.58L29.694,6.861H25.485Zm0,.98v8.662a5.393,5.393,0,0,1,9.6,1.63h1.182V14.213ZM13.723,25.975a4.411,4.411,0,1,0-4.411,4.411A4.411,4.411,0,0,0,13.723,25.975ZM29.9,30.386a4.411,4.411,0,1,0-4.411-4.411A4.411,4.411,0,0,0,29.9,30.386Z" fill="#009fe3"/>
</svg>
