<svg xmlns="http://www.w3.org/2000/svg" width="100%" height="100%" viewBox="0 0 38.473 31.366">
  <path id="users-sharp-thin" d="M10.533,4.9a3.921,3.921,0,1,1,3.921,3.921A3.921,3.921,0,0,1,10.533,4.9Zm8.822,0a4.9,4.9,0,1,0-4.9,4.9A4.9,4.9,0,0,0,19.355,4.9Zm5.881,3.921a4.9,4.9,0,1,1-4.9,4.9A4.9,4.9,0,0,1,25.236,8.822Zm0,10.782a5.881,5.881,0,1,0-5.881-5.881A5.881,5.881,0,0,0,25.236,19.6Zm-8.093,2.941H33.329l2.352,7.842H14.791Zm16.914-.98H16.415l-2.647,8.822-.294.98H37l-.294-.98Zm-16.418-9.8H8.573L6,18.624H7.048l2.205-5.881h8.2A8.643,8.643,0,0,1,17.64,11.762Zm15.193,0a7.474,7.474,0,0,1,.184.98h8.2l2.205,5.881h1.048L41.9,11.762ZM33.078,4.9A3.921,3.921,0,1,1,37,8.822,3.921,3.921,0,0,1,33.078,4.9Zm8.822,0A4.9,4.9,0,1,0,37,9.8,4.9,4.9,0,0,0,41.9,4.9Z" transform="translate(-6)" fill="#009fe3"/>
</svg>
