<svg id="lightbulb-on-sharp-duotone-solid" xmlns="http://www.w3.org/2000/svg" width="105.244" height="84.195" viewBox="0 0 105.244 84.195">
  <path id="Pfad_11412" data-name="Pfad 11412" d="M144,28.942a28.746,28.746,0,0,0,5.164,16.494c.822,1.184,1.677,2.352,2.532,3.519,3.256,4.456,6.528,8.946,8.091,14.175H186.1c1.579-5.246,4.851-9.719,8.091-14.175.855-1.168,1.71-2.335,2.532-3.519A28.941,28.941,0,1,0,144,28.942Zm10.524,0a18.408,18.408,0,0,1,18.418-18.418v5.262a13.152,13.152,0,0,0-13.155,13.155Z" transform="translate(-120.32)" fill="#1a7bab" opacity="0.4"/>
  <path id="Pfad_11413" data-name="Pfad 11413" d="M14.356,4.887l.987.658,3.947,2.631,3.289,2.187L18.2,16.941l-3.289-2.187-3.947-2.631-.987-.658L6.693,9.278,11.067,2.7Zm80.906,6.578-.987.658-3.947,2.631L87.04,16.941l-4.374-6.578,3.289-2.187L89.9,5.545l.987-.658L94.177,2.7l4.374,6.561ZM3.947,28.567H16.115V36.46H0V28.567Zm89.128,0h12.169V36.46H89.128V28.567ZM19.289,56.851l-3.947,2.631-.987.658-3.289,2.187L6.693,55.749l3.289-2.187.987-.658,3.947-2.631L18.2,48.086l4.374,6.561-3.289,2.187ZM90.329,50.29l3.947,2.631.987.658,3.289,2.187-4.374,6.561L90.888,60.14l-.987-.658-3.947-2.631-3.289-2.187L87.04,48.1ZM39.466,86.451V65.4H65.777V86.451Z" transform="translate(0 -2.256)" fill="#1a7bab"/>
</svg>
