<?xml version="1.0" encoding="UTF-8"?> <svg xmlns="http://www.w3.org/2000/svg" xmlns:xlink="http://www.w3.org/1999/xlink" viewBox="0 0 216.36 227.45"><defs><clipPath id="a" transform="translate(0 0)"><rect x="-0.01" y="0.02" width="227.5" height="227.45" fill="none"></rect></clipPath></defs><g style="isolation:isolate"><path d="M110.69,126.69v32.05h-2.11v-5.31a10,10,0,0,1-9.25,5.48c-6.35,0-11.14-4.71-11.14-11.44S93,136,99.33,136a10.1,10.1,0,0,1,9.2,5.4V126.69Zm-2.16,20.78c0-5.66-3.88-9.51-9.07-9.51s-9.07,3.85-9.07,9.51,3.89,9.5,9.07,9.5S108.53,153.12,108.53,147.47Z" transform="translate(0 0)" fill="#0092cf"></path><path d="M119.12,129a1.78,1.78,0,0,1,1.77-1.77,1.74,1.74,0,0,1,1.77,1.72,1.77,1.77,0,0,1-3.54,0Zm.69,7.21H122v22.55h-2.16Z" transform="translate(0 0)" fill="#0092cf"></path><path d="M151.39,136.19v20.13c0,7.56-3.68,11-10.93,11-4.11,0-8-1.29-10.33-3.58l1.17-1.64a13.37,13.37,0,0,0,9.11,3.28c6,0,8.82-2.77,8.82-8.77v-3.8a10.43,10.43,0,0,1-9.38,5.14c-6.39,0-11.23-4.54-11.23-11S133.46,136,139.85,136a10.33,10.33,0,0,1,9.46,5.27v-5.1ZM149.27,147c0-5.32-3.89-9-9.24-9s-9.21,3.67-9.21,9,3.89,9,9.21,9S149.27,152.26,149.27,147Z" transform="translate(0 0)" fill="#0092cf"></path><path d="M159.85,129a1.78,1.78,0,0,1,1.78-1.77,1.74,1.74,0,0,1,1.77,1.72,1.78,1.78,0,0,1-3.55,0Zm.7,7.21h2.16v22.55h-2.16Z" transform="translate(0 0)" fill="#0092cf"></path><path d="M183,157.31a6.86,6.86,0,0,1-4.62,1.6c-4,0-6.14-2.33-6.14-6.13V138.05h-4.14v-1.86h4.14v-4.92h2.16v4.92h7.17v1.86h-7.17v14.51c0,2.9,1.43,4.5,4.19,4.5a5.2,5.2,0,0,0,3.5-1.26Z" transform="translate(0 0)" fill="#0092cf"></path><path d="M205.3,144.44v14.3h-2.07v-4c-1.43,2.59-4.19,4.19-8.13,4.19-5,0-8.12-2.59-8.12-6.43,0-3.42,2.16-6.31,8.43-6.31h7.73v-1.81c0-4.19-2.29-6.44-6.7-6.44a11.67,11.67,0,0,0-7.77,2.85l-1.08-1.56a13.78,13.78,0,0,1,9-3.19C202.19,136,205.3,138.87,205.3,144.44Zm-2.16,7.65v-4.24h-7.69c-4.67,0-6.31,2-6.31,4.54,0,2.94,2.29,4.75,6.27,4.75A7.73,7.73,0,0,0,203.14,152.09Z" transform="translate(0 0)" fill="#0092cf"></path><path d="M214.2,126.69h2.16v32.05H214.2Z" transform="translate(0 0)" fill="#0092cf"></path></g><g clip-path="url(#a)"><path d="M141.05,73.36a20.61,20.61,0,1,0-.52,24.84" transform="translate(0 0)" fill="none" stroke="#40494f" stroke-linecap="round" stroke-linejoin="round" stroke-width="6.4"></path></g><line x1="162.14" y1="74.71" x2="162.14" y2="105.56" fill="none" stroke="#40494f" stroke-linecap="round" stroke-linejoin="round" stroke-width="6.4"></line><line x1="146.98" y1="65.37" x2="178.79" y2="65.37" fill="none" stroke="#40494f" stroke-linecap="round" stroke-linejoin="round" stroke-width="6.4"></line><g clip-path="url(#a)"><path d="M56.75,97.51a20.62,20.62,0,1,0,.52-24.83" transform="translate(0 0)" fill="none" stroke="#40494f" stroke-linecap="round" stroke-linejoin="round" stroke-width="6.4"></path></g><line x1="48.93" y1="67.94" x2="48.93" y2="143.61" fill="none" stroke="#40494f" stroke-linecap="round" stroke-linejoin="round" stroke-width="6.4"></line><g clip-path="url(#a)"><path d="M150.69,9.59A110.51,110.51,0,1,0,173.1,207" transform="translate(0 0)" fill="none" stroke="#0092cf" stroke-linecap="round" stroke-linejoin="round" stroke-width="6.4"></path></g><polygon points="196.08 193.2 167.65 195.38 181.67 217.8 196.08 193.2" fill="#0092cf"></polygon></svg> 