<svg xmlns="http://www.w3.org/2000/svg" width="649.823" height="774.413" viewBox="0 0 649.823 774.413">
  <path id="Differenzmenge_1" data-name="Differenzmenge 1" d="M14175.344,10540a79.932,79.932,0,0,1-16.093-1.589,72.313,72.313,0,0,1-15.373-5.011c-3.508-1.581-6.274-4.9-8.951-8.116l-.05-.061c-.705-.845-1.434-1.719-2.158-2.536-.392-.445-.786-.9-1.167-1.334l-.022-.025c-5.982-6.85-11.633-13.319-21.684-15.937-6.459-1.66-12.236-6.453-17.823-11.088-1.077-.895-2.3-1.907-3.489-2.861-3.416-2.863-5.942-7-8.385-11l0-.006-.093-.152c-4.873-8.118-12.5-12.79-23.32-14.281a6.955,6.955,0,0,1-4.729-2.2,8.2,8.2,0,0,1-1.633-4.381,20.506,20.506,0,0,1,.02-6.234,21.864,21.864,0,0,1,1.976-6.317,20.577,20.577,0,0,1,10.281-9.874,14.53,14.53,0,0,0,7.377-6.892,14.105,14.105,0,0,0,.769-10.07c-.394-1.451-.751-2.945-1.1-4.389l0-.02,0-.007a55.348,55.348,0,0,0-3.491-11.111,21.988,21.988,0,0,0-3.16-4.9,20.514,20.514,0,0,0-4.858-4.124,2.553,2.553,0,0,1-.935-1.586c-.558-2.044-.418-5.665.6-7.449a16.153,16.153,0,0,0,.556-15.29c-1.422-3.239-4.028-5.174-6.974-5.174a7.278,7.278,0,0,0-3.556.955,10.091,10.091,0,0,0-3.2,2.882c-.871,1.161-1.7,2.4-2.5,3.589a39.1,39.1,0,0,1-5.268,6.762,14.42,14.42,0,0,1-7.858,3.93c-1.35.2-2.7.486-4.012.765l-.054.012-.012,0a34.066,34.066,0,0,1-7.082,1.008c-6.517.11-10.275.542-12.733,2.595-2.42,2.019-3.579,5.521-5.119,12.137-.568,2.269-2.79,4.188-4.937,6.046-.79.683-1.606,1.389-2.314,2.1a33.907,33.907,0,0,1-3.141,2.771l-.012.01a18.887,18.887,0,0,0-4.77,4.919,37.3,37.3,0,0,0-1.82,3.907l-.011.026a22.452,22.452,0,0,1-3.137,5.827,9.059,9.059,0,0,1-6.191,3.186,24.04,24.04,0,0,0-2.718.563l-.008,0a15.77,15.77,0,0,1-3.546.611,3.72,3.72,0,0,1-1.539-.287,77.2,77.2,0,0,1-9.205-5.079l-.023-.014c-1.991-1.222-4.05-2.483-6.169-3.611a21.192,21.192,0,0,0-4.474-1.328l-.008,0c-1.076-.241-2.295-.515-3.665-.9-.646,5.7-1.22,10.447-2.23,15.4a15.149,15.149,0,0,1-2.726,7.733,7,7,0,0,1-5.73,2.782,12.958,12.958,0,0,1-5.382-1.364c-6.087-2.873-11.691-7.034-17.112-11.058-1.73-1.285-3.521-2.614-5.317-3.894a42.9,42.9,0,0,1-14.408-17.353c-2.73-5.8-4.676-12.7-6.122-21.7a21.594,21.594,0,0,0-2.247-6.722,23.148,23.148,0,0,0-3.854-5.229c-2.989-3.1-6.625-5.5-10.474-8.032l-.278-.183-.892-.588a76.59,76.59,0,0,1-6.861-4.938,25.208,25.208,0,0,1-5.523-6.108c-3.561-5.793-7.31-12-10.558-18.522a98.219,98.219,0,0,1-7.63-20.2,29.914,29.914,0,0,0-4.925-10.861,28.831,28.831,0,0,0-8.02-7.314,42.721,42.721,0,0,0-10.279-4.531,78.492,78.492,0,0,0-11.7-2.513c-24.311-3.486-49.352-7.314-74.426-11.379a19.412,19.412,0,0,1-10.336-4.605c-2.671-2.412-4.766-5.833-6.4-10.461-2.8-7.885-7.338-15.224-11.727-22.32-2.261-3.654-4.595-7.429-6.685-11.264-1.952-3.67-3.655-7.615-5.3-11.431l-.019-.043-.044-.1c-.686-1.59-1.4-3.234-2.111-4.829.85-.852,1.6-1.71,2.332-2.54l.122-.139c1.6.493,3.255.9,4.859,1.3l.054.013.015,0a43.393,43.393,0,0,1,9.021,2.925,19.65,19.65,0,0,0,8.42,2.45,8.845,8.845,0,0,0,6.193-2.478,24.132,24.132,0,0,0,5.026-7.448,16.652,16.652,0,0,0,1.766-6.031,13.194,13.194,0,0,0-.611-5.16c-1.026-3.217-3.16-6.114-5.224-8.915-.925-1.257-1.881-2.556-2.739-3.883a102.37,102.37,0,0,0-6.47-9.041l-.093-.113-.013-.016a25.983,25.983,0,0,0-4.482-4.654,10.234,10.234,0,0,0-6.362-2.032c-.171,0-.354,0-.544.011-.13,0-.271.008-.432.008a8.431,8.431,0,0,1-6.562-2.815,10.979,10.979,0,0,1-2.492-6.9,87.53,87.53,0,0,1,1.029-14.493l.062-.485c.046-.363.093-.727.138-1.09.857-6.8,1.8-13.424,2.8-20.439.41-2.88.875-6.144,1.323-9.354a23.472,23.472,0,0,0,9.231,2.073c6.166,0,11.471-3.024,15.766-8.99,5.315-7.3,10.076-15.7,8.928-27.674-3.687,2.212-6.848,4.167-9.944,6.152l.014.317a4.87,4.87,0,0,0-1.563,1.452,46.677,46.677,0,0,1-12.062,11.279,27.482,27.482,0,0,1-14.673,4.114,39.979,39.979,0,0,1-11.983-2,38.248,38.248,0,0,0-11.587-1.51c-3.442,0-7.024.271-10.488.534l-.027,0-.077.006c-3.461.262-7.04.532-10.5.532-.422,0-.84,0-1.241-.012a29.731,29.731,0,0,1-7.9-1.006,4.945,4.945,0,0,1-2.584-1.561,142.406,142.406,0,0,1-9.065-14.835c-1.392-2.5-2.831-5.09-4.325-7.592a7.266,7.266,0,0,1-.822-6.612,15.065,15.065,0,0,1,3.947-5.1,49.6,49.6,0,0,1,7.947-6.229,57.96,57.96,0,0,1,8.764-4.512,88.7,88.7,0,0,1,18.886-5.216,69.7,69.7,0,0,1,12.2-.921c3.422,0,6.89.151,10.242.3,2.921.127,5.941.258,8.909.289l.953.012c.909.012,2.041.027,3.1.027a36.371,36.371,0,0,0,11.592-1.432,19.664,19.664,0,0,0,9.9-7.535c2.268-3.109,5.575-5.512,8.774-7.836l.009-.007.01-.007a55.91,55.91,0,0,0,6.721-5.429c7.687-7.466,7.719-14.14.107-22.314-.413-.414-.834-.847-1.241-1.266l-.063-.064c-.89-.916-1.807-1.86-2.71-2.688-2.015-1.87-3.955-2.818-5.77-2.818-2.4,0-4.458,1.708-5.948,4.938a73.746,73.746,0,0,0-2.977,8.215l0,.006c-.436,1.368-.887,2.783-1.372,4.167a13.792,13.792,0,0,1-2.538,4.337,16.576,16.576,0,0,1-3.866,3.288,18.834,18.834,0,0,1-9.8,2.815,15.625,15.625,0,0,1-5.1-.825,13.15,13.15,0,0,1-4.468-2.587c-1.528-1.311-2.155-5.627-1.117-7.7a37.457,37.457,0,0,1,4.576-6.691l.011-.014a53.516,53.516,0,0,0,3.447-4.677,89.466,89.466,0,0,0,9.079-18.007,46.189,46.189,0,0,0,2.638-19.934c-.53-5.165-2.117-9.8-4.354-12.72a382.456,382.456,0,0,1-23.877-34.59,250.8,250.8,0,0,1-18.859-37.6c-3.5-8.683-8.515-16.935-13.36-24.914-1.937-3.189-3.939-6.486-5.83-9.788a6.975,6.975,0,0,0-1.842-1.9,7.029,7.029,0,0,1-1.842-1.9c-.3-.585-.642-1.187-1-1.824l-.032-.056c-1.432-2.54-3.054-5.419-2.428-7.384a111.847,111.847,0,0,1,6.841-15.652c1.046-2.1,2.126-4.271,3.205-6.555,7.242,8.154,15.529,8.377,23.543,8.593,13.519.321,27.992.814,42.247,2.232a236.851,236.851,0,0,1,41.662,7.59c5.525,1.565,11.164,3.033,16.616,4.453,8.565,2.229,17.422,4.535,26.009,7.261,3.9,1.336,7.332,5.032,10.361,8.294l.066.072c.246.265.49.527.731.785a46.715,46.715,0,0,0,7.932,7.3,17.413,17.413,0,0,0,9.976,3.2c.178,0,.347,0,.5-.007,2.893-.116,5.993-1.6,8.257-2.679a52.35,52.35,0,0,0,5.133-2.785l.021-.013c1.5-.89,3.062-1.811,4.664-2.558a12.788,12.788,0,0,1,5.227-1.108,12.92,12.92,0,0,1,11.177,6.352,13.369,13.369,0,0,0,4.336,4.654,9.888,9.888,0,0,0,5.363,1.582,12.768,12.768,0,0,0,8.712-3.893c3.163-2.929,6.107-6.125,8.953-9.217l.092-.1c1.267-1.375,2.577-2.8,3.9-4.187,3.33-3.494,5.936-5.053,8.449-5.053,2.607,0,5.287,1.645,8.96,5.5,2.883,3.113,7.359,5.152,10.936,6.581,4.365,1.748,8.885,3.367,13.255,4.934l.024.009a230.984,230.984,0,0,1,22.09,8.783c4,1.881,7.342,5.312,10.577,8.629,1.377,1.412,2.8,2.873,4.266,4.206a11.313,11.313,0,0,0,7.763,3.4,13.232,13.232,0,0,0,5.4-1.281c4.82-2.109,9.266-5,9.147-11.829,0-1.071.085-2.051.184-3.185l0-.029q.021-.229.041-.466h.011a6.9,6.9,0,0,0,.926-.083l.024,0a5.278,5.278,0,0,1,.657-.062.68.68,0,0,1,.5.149l1.64,1.511.007.007a136.907,136.907,0,0,1,13.806,13.984,52.844,52.844,0,0,1,5.463,8.061,41.8,41.8,0,0,1,3.742,9.352c.934,3.42.075,7.8-2.355,12.011-2.318,4.018-5.733,7.287-9.135,8.743-5.528,2.26-11.271,4.8-15.4,8.816a13.728,13.728,0,0,0-3.292,5.83,15.17,15.17,0,0,0-.612,6.666c.788,4.5,2.726,8.778,4.776,13.309l.018.037c.825,1.824,1.68,3.71,2.458,5.624,3.491-1.838,5.806-3.623,7.282-5.621a11.626,11.626,0,0,0,2.093-8.212l-.016-.214c-.009-.127-.019-.255-.028-.383v-.009c-.218-2.97-.442-6.041.6-8.546,1.216-2.879,4.229-7.148,5.9-7.148a1.113,1.113,0,0,1,.124.008,14.261,14.261,0,0,1,5.19,2.132,11.444,11.444,0,0,1,3.849,3.893,61.415,61.415,0,0,1,5.961,15.4,45.684,45.684,0,0,1,.971,14.933,46.36,46.36,0,0,1-4.029,14.494,63.742,63.742,0,0,1-9.04,14.086,60.019,60.019,0,0,1-14.115,12.051,173.019,173.019,0,0,1-16.108,8.692c-1.869.925-3.989,1.973-6.039,3.024a23.266,23.266,0,0,0-6,3.947,6.846,6.846,0,0,0-2.148,5.874,8.381,8.381,0,0,0,8.741,7.753,12.109,12.109,0,0,0,2.529-.277c15.989-3.455,29.25-6.61,41.731-9.93a55.5,55.5,0,0,0,13.947-6.139,13.434,13.434,0,0,1,7.065-2.286c3.492,0,6.785,1.772,10.677,5.746a29.726,29.726,0,0,1,4.9,6.238,19.058,19.058,0,0,1,2.349,6.523,20.321,20.321,0,0,1-.16,7.087,34.507,34.507,0,0,1-2.63,7.934,51.181,51.181,0,0,0-3.841,12.263,52.7,52.7,0,0,0-.691,12.189c.42,7.4,2.3,15.313,5.762,24.2a3,3,0,0,1,.178.5l.007.024a1.179,1.179,0,0,0,.374.706c.767.493,1.568.966,2.5,1.513l.035.021c1.016.6,2.279,1.346,3.938,2.374.606-1.211,1.3-2.449,1.905-3.542a41.187,41.187,0,0,0,3.674-7.84c1.506-4.859,2.7-9.927,3.846-14.828l.009-.035,0-.012c.721-3.072,1.466-6.249,2.281-9.34,1.641-6.5,4.26-11.163,8.006-14.24,3.783-3.107,8.865-4.728,15.537-4.952,2.308-.072,4.7-.185,6.812-.283,3.889-.182,7.909-.369,11.849-.369a77.073,77.073,0,0,1,13.253.987c10.141,1.73,19.889,6.437,28.229,10.712,4.767,2.347,9.117,5.661,13.325,8.865l.017.013c2.184,1.665,4.441,3.386,6.745,4.959,3.158,2.24,4.865,4.377,5.37,6.725.511,2.379-.2,4.994-2.245,8.231-.668,1.055-1.286,2.075-2.067,3.368l-.094.153c-.734,1.217-1.613,2.668-2.752,4.513,1.942.417,3.7.9,5.391,1.367l.007,0a42.808,42.808,0,0,0,7.315,1.579v437.9C14181.6,10539.838,14178.407,10540,14175.344,10540Zm-536.842-522a9.714,9.714,0,0,1-3.688-.888c-1.325-.6-2.171-1.333-2.32-2.017a.019.019,0,0,1,0-.008c-1.174-3.959-3.139-10.585-1.117-12.831,4.257-4.632,10.107-8.852,18.411-13.278.05-.028.1-.054.149-.079l.045-.022a3.489,3.489,0,0,1,1.578-.388,4.462,4.462,0,0,1,3.128,1.513,10.529,10.529,0,0,1,2.295,3.895,15.545,15.545,0,0,1,.843,5.351,17.492,17.492,0,0,1-5.607,13.139,20.217,20.217,0,0,1-6.131,4,20.612,20.612,0,0,1-7.344,1.611C13638.652,10018,13638.577,10018,13638.5,10018Zm-23.994-25.461a11.03,11.03,0,0,1-2.105-.213c-3.182-.569-7.7-3.811-8.142-6.473a14,14,0,0,1-.209-2.325,12.5,12.5,0,0,1,3.272-8.8,6.318,6.318,0,0,1,4.4-2.054c.079,0,.159,0,.237.006a10.965,10.965,0,0,1,8,4.012,10.25,10.25,0,0,1,2.145,4.167,8.6,8.6,0,0,1,.237,1.979,13.064,13.064,0,0,1-1.2,5.595,7.135,7.135,0,0,1-3.283,3.384A7.553,7.553,0,0,1,13614.508,9992.543Zm-42.041-35.254a22.881,22.881,0,0,1-4.9-.433,5.5,5.5,0,0,1-3.367-1.795,65.6,65.6,0,0,1-9.822-19.528,3.606,3.606,0,0,1-.137-1.1c-.011-2.57,2.3-6.084,4.044-8.5a10.319,10.319,0,0,1,1.611-1.646,31.713,31.713,0,0,1,3.771-2.651c.939-.6,1.792-1.146,2.717-1.782.258-.179.492-.343.718-.5-.037.207-.078.427-.125.694l-.041.229c-.171,1-.31,1.915-.442,2.8l-.014.088,0,.012a44.438,44.438,0,0,1-.94,5,18.646,18.646,0,0,0-.789,4.833c-.016,4.395,2.214,7.667,6.815,10.006a19.9,19.9,0,0,1,3.837,2.58,7.463,7.463,0,0,1,2.413,3.335,5.72,5.72,0,0,1,.151,1.5c0,2.62-1.3,6.662-2.162,6.758C13574.992,9957.228,13573.762,9957.289,13572.467,9957.289Zm52.158-1.3c-.8,0-1.6-.026-2.379-.079a24.259,24.259,0,0,1-10.518-3.053c-.145-.081-.288-.164-.44-.252.059-.049.116-.094.173-.138l.062-.049.238-.186a46.559,46.559,0,0,1,13.515-7.517,42.925,42.925,0,0,1,14.266-2.312,60.816,60.816,0,0,1,10.069.89c.037,0,.073.012.109.018l.05.009.126.021c-.012.034-.025.069-.04.1l-.011.026a21.518,21.518,0,0,1-5.021,7.768,14.163,14.163,0,0,1-4.048,2.744,14.479,14.479,0,0,1-4.938,1.188c-1.268.092-2.621.225-3.708.332C13629.69,9955.744,13627.168,9955.991,13624.625,9955.991Zm-27.98-26.146c-.092,0-.187,0-.277,0a17.363,17.363,0,0,1-11.032-4.578c-3.257-2.9-5.185-6.6-5.288-10.152-.091-2.072,1.393-4.251,2.827-6.359.308-.45.655-.961.968-1.452a21.292,21.292,0,0,1,8.229-7.447,25.671,25.671,0,0,1,11.743-2.594h.112c1.538.15,3.31.279,5.023.405,3.607.264,7.694.563,11.715,1.159a10.165,10.165,0,0,1,3.9,1.363,8.878,8.878,0,0,1,2.749,2.622,10.947,10.947,0,0,1,1.272,8.846c-2.1,8.417-3.96,12.792-8.827,14.89-2.378,1.059-5.5,1.611-10.788,1.907l-.059,0c-.262.016-.558.032-.856.047-1.713.1-3.455.382-5.14.651l-.016,0a46.793,46.793,0,0,1-5.893.688C13596.886,9929.846,13596.763,9929.846,13596.645,9929.846Zm-53.309-29.573h0l-.05-.059c-.058-.069-.109-.129-.158-.183a.022.022,0,0,1-.007.01.024.024,0,0,0-.007.009l-.021-.026-.016-.021c-.058-.071-.113-.142-.173-.213-.209-.221-.429-.441-.655-.666-.353-.353-.719-.717-1.035-1.089a4.072,4.072,0,0,1-1.225-2c-1.452-9.656-2.871-20.4-4.466-33.809a77.167,77.167,0,0,1-.152-16.607,100.116,100.116,0,0,1,2.905-15.922c2.73-10.441,6.878-20.721,10.89-30.662l.107-.267c.579-1.437,1.179-2.924,1.763-4.383a189.178,189.178,0,0,1,12.385-24.66c1.427-2.309,5.281-3.42,8.48-4.131l.025,0a.378.378,0,0,1,.23.113c.514.014,1.572,2.295,2.506,4.309.33.71.642,1.381.922,1.941a1.98,1.98,0,0,1,.112,1.1v.007c-.027.384-.054.743.112.908a11.54,11.54,0,0,1,2.676,4.645,6.152,6.152,0,0,1-.238,3.843c-.91,2.35-3.131,4.361-5.278,6.306l-.008.008c-.506.457-1.079.976-1.617,1.487s-1.069,1.022-1.532,1.461c-5.547,5.261-10.785,10.228-10.07,19.521.39,4.888,1.767,8.739,4.21,11.775a18.56,18.56,0,0,0,4.157,3.618c2.4,1.546,5.035,3.09,8.294,4.859,2.33,1.242,4.666,2.432,7.138,3.691,2.879,1.467,5.855,2.983,8.894,4.62a18.588,18.588,0,0,1-3.206,8.773,20.237,20.237,0,0,1-7.727,6.513,9.265,9.265,0,0,1-4.208,1.063c-3.537,0-6.449-2.238-9.266-4.4-.486-.374-.989-.76-1.48-1.122-.552-.41-1.083-.839-1.6-1.253-1.985-1.6-3.857-3.111-6.281-3.111a7.307,7.307,0,0,0-3.169.793c-4.922,2.461-7.258,6.513-7.14,12.385.111,8.479.111,17.078,0,25.555a52.463,52.463,0,0,1-1.449,11.047,7.17,7.17,0,0,1-2.2,2.838,18.194,18.194,0,0,0-1.376,1.4Z" transform="translate(-13534.996 -9765.587)" fill="#1d89c4"/>
</svg>
