<?xml version="1.0" encoding="utf-8"?>
<!-- Generator: Adobe Illustrator 25.0.1, SVG Export Plug-In . SVG Version: 6.00 Build 0)  -->
<svg version="1.1" id="Ebene_1" xmlns="http://www.w3.org/2000/svg" xmlns:xlink="http://www.w3.org/1999/xlink" x="0px" y="0px"
	 viewBox="0 0 226.8 161.04" style="enable-background:new 0 0 226.8 161.04;" xml:space="preserve">
<style type="text/css">
	.st0{fill:#0095D5;}
	.st1{fill:#004C69;}
	.st2{fill:#556063;}
</style>
<path class="st0" d="M167.23,104.33c0.32,0.09,0.54,0.11,0.73,0.2c0.47,0.25,0.9,0.57,1.38,0.78c0.18,0.08,0.46-0.05,0.7-0.08
	c0.69-0.08,0.74-0.7,1-1.16c0.16-0.28,0.48-0.45,0.71-0.69c0.23-0.23,0.58-0.45,0.65-0.73c0.27-1.16,0.42-1.3,1.6-1.32
	c0.33,0,0.66-0.11,1-0.16c0.75-0.12,1.01-0.76,1.4-1.28c0.37-0.5,0.98-0.45,1.23,0.12c0.2,0.45,0.21,0.89-0.05,1.37
	c-0.12,0.21-0.11,0.73,0.03,0.81c0.84,0.52,0.91,1.39,1.13,2.2c0.18,0.65-0.12,1.25-0.73,1.52c-0.88,0.39-1.21,1.3-1.1,2.01
	c0.04,0.31,0.16,0.54,0.57,0.59c0.87,0.12,1.61,0.48,2.09,1.28c0.22,0.36,0.45,0.74,0.76,1c0.6,0.48,1.21,1.07,1.91,1.25
	c0.96,0.25,1.47,0.89,2.05,1.55c0.31,0.35,0.6,0.78,1,0.96c1.25,0.57,2.58,0.7,4,0.51c0.03-0.56,0.13-1.09,0.08-1.6
	c-0.14-1.39,0.48-2.43,1.39-3.39c0.65-0.68,1.29-1.39,1.77-2.19c0.62-1.04,1.07-2.19,1.59-3.29c0.8-1.7,0.32-3.35-1.25-4.24
	c-0.35-0.2-0.7-0.42-1.08-0.52c-0.94-0.26-1.14-0.61-0.92-1.61c0.25-1.11,0.5-2.23,0.67-3.36c0.29-1.96,0.46-3.94,0.79-5.89
	c0.17-0.98,0.46-1.99,0.93-2.87c0.89-1.65,2.12-3.08,3.46-4.39c0.61-0.6,1.21-1.19,1.8-1.81c0.13-0.14,0.28-0.36,0.25-0.52
	c-0.1-0.74-0.27-1.47-0.39-2.2c-0.21-1.2-0.26-2.37,0.46-3.47c0.24-0.37,0.27-0.89,0.39-1.34c-0.06-0.02-0.12-0.05-0.19-0.07
	c-0.26,0.2-0.51,0.43-0.79,0.6c-0.3,0.18-0.62,0.37-0.96,0.46c-0.45,0.11-1.04,0.33-1.38,0.15c-1.33-0.71-1.71-0.23-2.58,0.63
	c-0.5,0.5-0.98,1.03-1.54,1.47c-0.81,0.65-1.77,0.23-2.67,0.25c-0.39,0.01-0.79-0.16-1.3-0.27c0.21-0.34,0.32-0.53,0.44-0.72
	c0.36-0.57,0.27-0.95-0.28-1.34c-0.6-0.41-1.15-0.92-1.8-1.24c-0.8-0.41-1.65-0.81-2.53-0.96c-0.93-0.16-1.9-0.06-2.86-0.03
	c-1.19,0.04-1.82,0.57-2.11,1.72c-0.19,0.72-0.33,1.46-0.55,2.17c-0.11,0.36-0.33,0.68-0.5,1.02c-0.29-0.18-0.44-0.26-0.58-0.35
	c-0.03-0.02-0.03-0.07-0.05-0.11c-0.56-1.44-0.78-2.89-0.11-4.36c0.46-1.01,0.34-1.75-0.4-2.49c-0.47-0.48-0.94-0.71-1.59-0.31
	c-0.39,0.24-0.82,0.43-1.25,0.55c-1.24,0.33-2.49,0.62-3.74,0.89c-0.51,0.11-0.95-0.15-1.01-0.67c-0.05-0.44,0.32-0.67,0.73-0.88
	c1.15-0.59,2.37-1.08,3.25-2.13c1.38-1.66,1.56-3.41,0.55-5.28c-0.14-0.26-0.51-0.49-0.81-0.54c-0.15-0.02-0.43,0.38-0.54,0.64
	c-0.1,0.24-0.07,0.54-0.05,0.82c0.05,0.61-0.27,0.94-0.84,1.24c-0.24-0.59-0.55-1.13-0.65-1.7c-0.06-0.35,0.09-0.87,0.35-1.12
	c0.37-0.36,0.89-0.59,1.38-0.79c0.63-0.27,1.21-1.2,1.03-1.86c-0.34-1.28-1.29-2.1-2.21-2.95c-0.03-0.03-0.11,0-0.19,0
	c-0.01,0.12-0.02,0.22-0.02,0.33c0.01,0.58-0.34,0.85-0.82,1.06c-0.45,0.2-0.82,0.14-1.18-0.19c-0.44-0.4-0.82-0.91-1.33-1.15
	c-1.02-0.49-2.12-0.81-3.17-1.23c-0.35-0.14-0.73-0.32-0.98-0.59c-0.6-0.63-0.96-0.67-1.56-0.04c-0.39,0.41-0.75,0.83-1.16,1.21
	c-0.57,0.54-1.27,0.44-1.65-0.21c-0.29-0.5-0.93-0.71-1.47-0.47c-0.3,0.14-0.57,0.34-0.88,0.48c-0.23,0.11-0.49,0.23-0.74,0.24
	c-0.72,0.02-1.19-0.44-1.65-0.94c-0.29-0.31-0.62-0.69-1-0.82c-1.26-0.4-2.55-0.69-3.82-1.05c-2.46-0.7-4.99-0.82-7.52-0.88
	c-0.74-0.02-1.47-0.05-2.11-0.77c-0.34,0.72-0.69,1.33-0.9,1.99c-0.07,0.22,0.17,0.56,0.31,0.83c0.07,0.13,0.26,0.21,0.33,0.34
	c0.59,1.03,1.28,2.02,1.72,3.11c0.94,2.37,2.29,4.46,3.83,6.47c0.23,0.3,0.35,0.75,0.39,1.14c0.12,1.27-0.4,2.36-1.05,3.4
	c-0.22,0.35-0.54,0.65-0.72,1.02c-0.09,0.18-0.04,0.57,0.1,0.69c0.7,0.62,2,0.24,2.31-0.63c0.13-0.37,0.23-0.76,0.39-1.11
	c0.24-0.52,0.63-0.58,1.05-0.19c0.12,0.11,0.24,0.24,0.36,0.36c0.67,0.72,0.69,1.32-0.01,2c-0.43,0.43-1.04,0.71-1.39,1.19
	c-0.61,0.85-1.43,0.81-2.29,0.8c-0.94-0.01-1.9-0.13-2.81,0.03c-1.15,0.2-2.3,0.57-3.19,1.43c-0.3,0.28-0.55,0.59-0.28,1.05
	c0.4,0.67,0.74,1.38,1.2,2.01c0.14,0.19,0.6,0.21,0.91,0.22c1.02,0.02,2.11-0.25,3.04,0.04c1.57,0.49,2.57-0.06,3.47-1.2
	c0.04-0.05,0.08-0.1,0.14-0.13c0.28-0.18,0.57-0.36,0.92-0.57c0.1,1.04-0.29,1.78-0.8,2.48c-0.59,0.82-1.38,0.99-2.24,0.62
	c-0.13,0.93-0.26,1.8-0.37,2.67c-0.06,0.48-0.13,0.96-0.11,1.44c0.02,0.5,0.32,0.89,0.85,0.87c0.52-0.02,0.76,0.28,1.03,0.61
	c0.21,0.26,0.4,0.53,0.58,0.81c0.42,0.65,1.08,1.19,0.61,2.15c-0.43,0.89-0.87,1.11-1.76,0.67c-0.38-0.19-0.83-0.25-1.25-0.38
	c-0.07,0.08-0.14,0.16-0.22,0.24c0.22,0.49,0.42,1,0.67,1.47c0.55,1.01,1.27,1.94,1.65,3.01c0.29,0.82,0.74,1.23,1.5,1.35
	c2.22,0.36,4.44,0.7,6.67,1.02c1.45,0.21,2.76,0.72,3.13,2.26c0.32,1.29,0.96,2.38,1.63,3.47c0.25,0.41,0.7,0.72,1.11,0.99
	c0.71,0.47,1.43,0.9,1.59,1.86c0.22,1.37,0.63,2.65,1.84,3.5c0.66,0.47,1.29,1,2.01,1.34c0.71,0.33,1.15-0.03,1.24-0.82
	C167.12,105.27,167.17,104.86,167.23,104.33 M201.07,72.96c1.2,0,2.13-0.51,2.37-1.29c0.29-0.91-0.11-1.65-0.81-2.19
	c-1.28-0.98-2.73-1.67-4.31-1.98c-0.64-0.12-1.18,0.23-1.47,0.85c-0.24,0.5-0.17,0.96,0.1,1.48c0.31,0.6,0.86,0.73,1.38,0.96
	c0.57,0.25,1.02,0.55,0.99,1.27c-0.01,0.38,0.15,0.68,0.57,0.75C200.34,72.87,200.79,72.92,201.07,72.96 M135.87,52.39
	c-0.78-0.41-1.51-0.75-2.18-1.18c-0.48-0.31-0.72-0.77-0.77-1.4c-0.07-0.91,0.5-1.36,1.04-1.87c0.42-0.4,1-0.77,0.4-1.46
	c-0.03-0.04,0.01-0.13-0.02-0.18c-0.1-0.2-0.25-0.57-0.31-0.56c-0.27,0.06-0.63,0.16-0.76,0.37c-0.42,0.71-0.8,1.45-1.11,2.21
	c-0.78,1.95-1.65,3.89-1.39,6.08c0.12,1.01,0.25,2.03,0.4,3.03c0.02,0.13,0.19,0.24,0.28,0.36c0.11-0.12,0.28-0.23,0.32-0.38
	c0.08-0.32,0.12-0.65,0.13-0.99c0.02-0.76,0.01-1.53,0-2.29c-0.01-0.5,0.18-0.89,0.64-1.11c0.43-0.21,0.67,0.09,0.99,0.32
	c0.38,0.28,0.78,0.68,1.34,0.41C135.49,53.45,135.81,52.95,135.87,52.39 M136.9,57.54c-0.8,0-1.41,0.32-1.79,0.9
	c-0.14,0.22-0.35,0.47-0.34,0.7c0.02,0.69,0.79,1.34,1.51,1.32c0.33-0.01,0.66-0.1,0.99-0.12c1.28-0.07,1.53-0.27,1.84-1.51
	c0.14-0.57-0.15-1.07-0.71-1.15C137.86,57.6,137.31,57.58,136.9,57.54 M141.73,66.68c0.01-0.6-0.37-1.11-0.72-0.92
	c-0.6,0.32-1.2,0.7-1.65,1.19c-0.18,0.2-0.01,0.78,0.1,1.15c0.04,0.13,0.37,0.27,0.56,0.26C140.94,68.33,141.74,67.6,141.73,66.68
	 M133.6,59.52c-0.35,0.25-0.63,0.38-0.79,0.59c-0.18,0.25-0.42,0.62-0.35,0.85c0.2,0.62,0.49,1.24,0.88,1.75
	c0.16,0.21,0.69,0.21,1.04,0.19c0.09-0.01,0.24-0.51,0.18-0.73c-0.06-0.21-0.33-0.41-0.56-0.53c-0.59-0.3-0.71-0.75-0.54-1.34
	C133.52,60.08,133.54,59.85,133.6,59.52 M141.02,61.67c-1.3-0.21-2.38-0.02-3.46,0.83c0.76,0.45,1.5,0.28,2.2,0.23
	C140.36,62.68,140.77,62.3,141.02,61.67 M137.62,64.3c-0.4-0.01-0.8,0.54-0.69,1.18c0.04,0.24,0.45,0.53,0.73,0.58
	c0.56,0.11,0.88-0.26,0.89-0.85C138.55,64.74,138.1,64.31,137.62,64.3"/>
<path class="st0" d="M201.07,72.96c-0.27-0.04-0.73-0.09-1.18-0.16c-0.43-0.06-0.59-0.37-0.57-0.75c0.03-0.72-0.43-1.02-0.99-1.27
	c-0.52-0.23-1.07-0.35-1.38-0.96c-0.26-0.51-0.33-0.97-0.09-1.48c0.29-0.62,0.83-0.98,1.47-0.85c1.58,0.31,3.03,1,4.31,1.98
	c0.7,0.54,1.1,1.28,0.81,2.19C203.19,72.45,202.26,72.96,201.07,72.96"/>
<path class="st0" d="M135.87,52.39c-0.06,0.57-0.38,1.07-0.98,1.37c-0.56,0.28-0.96-0.12-1.34-0.4c-0.31-0.23-0.55-0.53-0.99-0.32
	c-0.46,0.23-0.65,0.61-0.64,1.11c0.01,0.76,0.01,1.53,0,2.29c-0.01,0.33-0.05,0.67-0.13,0.99c-0.04,0.14-0.21,0.25-0.32,0.38
	c-0.1-0.12-0.26-0.23-0.28-0.37c-0.15-1.01-0.28-2.02-0.4-3.03c-0.26-2.19,0.61-4.13,1.39-6.08c0.31-0.76,0.69-1.5,1.11-2.21
	c0.12-0.21,0.49-0.31,0.76-0.37c0.06-0.01,0.21,0.36,0.31,0.56c0.03,0.05-0.01,0.15,0.02,0.18c0.6,0.69,0.02,1.06-0.4,1.46
	c-0.54,0.52-1.11,0.97-1.04,1.88c0.05,0.63,0.29,1.1,0.77,1.4C134.36,51.64,135.09,51.97,135.87,52.39"/>
<path class="st0" d="M136.89,57.54c0.42,0.04,0.96,0.06,1.5,0.14c0.57,0.09,0.85,0.59,0.71,1.15c-0.31,1.24-0.56,1.45-1.84,1.51
	c-0.33,0.02-0.66,0.11-0.99,0.12c-0.72,0.02-1.49-0.63-1.51-1.32c-0.01-0.23,0.2-0.48,0.34-0.7
	C135.48,57.86,136.09,57.54,136.89,57.54"/>
<path class="st0" d="M141.73,66.68c0.02,0.93-0.79,1.65-1.71,1.68c-0.19,0.01-0.53-0.12-0.56-0.26c-0.11-0.38-0.28-0.95-0.1-1.15
	c0.45-0.49,1.05-0.87,1.65-1.19C141.36,65.56,141.74,66.07,141.73,66.68"/>
<path class="st0" d="M133.6,59.52c-0.06,0.33-0.08,0.57-0.14,0.79c-0.17,0.59-0.05,1.04,0.54,1.34c0.23,0.12,0.5,0.31,0.56,0.53
	c0.06,0.22-0.09,0.72-0.18,0.73c-0.35,0.02-0.88,0.03-1.04-0.19c-0.39-0.51-0.68-1.13-0.88-1.75c-0.07-0.23,0.17-0.61,0.35-0.85
	C132.97,59.89,133.25,59.77,133.6,59.52"/>
<path class="st0" d="M141.02,61.67c-0.26,0.63-0.66,1.02-1.26,1.06c-0.7,0.05-1.43,0.22-2.2-0.23
	C138.64,61.64,139.73,61.45,141.02,61.67"/>
<path class="st0" d="M137.62,64.3c0.49,0.01,0.93,0.45,0.93,0.91c-0.01,0.59-0.33,0.96-0.89,0.85c-0.28-0.05-0.69-0.34-0.73-0.58
	C136.82,64.84,137.21,64.28,137.62,64.3"/>
<path class="st1" d="M146.59,70.4c-0.61,0.85-1.43,0.81-2.29,0.81c-0.94-0.01-1.9-0.13-2.81,0.03c-1.16,0.2-2.3,0.57-3.19,1.43
	c-0.3,0.28-0.55,0.59-0.28,1.05c0.4,0.67,0.74,1.38,1.2,2.01c0.14,0.19,0.6,0.21,0.91,0.22c1.02,0.02,2.11-0.25,3.04,0.04
	c1.57,0.49,2.57-0.06,3.47-1.2c0.04-0.05,0.08-0.1,0.14-0.13L146.59,70.4z"/>
<path class="st2" d="M23.24,81.01l2.06-0.31c0.09,0.4,0.26,0.7,0.53,0.91c0.27,0.21,0.64,0.31,1.12,0.31c0.53,0,0.93-0.1,1.2-0.29
	c0.18-0.14,0.27-0.32,0.27-0.55c0-0.16-0.05-0.28-0.15-0.39c-0.1-0.1-0.33-0.19-0.69-0.27c-1.65-0.36-2.7-0.7-3.14-1
	c-0.61-0.42-0.92-1-0.92-1.74c0-0.67,0.26-1.23,0.79-1.69c0.53-0.46,1.35-0.69,2.46-0.69c1.06,0,1.85,0.17,2.36,0.52
	c0.51,0.35,0.87,0.86,1.06,1.53l-1.93,0.36c-0.08-0.3-0.24-0.53-0.47-0.69c-0.23-0.16-0.56-0.24-0.99-0.24
	c-0.54,0-0.93,0.08-1.16,0.23c-0.16,0.11-0.23,0.25-0.23,0.42c0,0.15,0.07,0.27,0.2,0.37c0.18,0.14,0.82,0.33,1.91,0.58
	s1.85,0.55,2.28,0.91c0.43,0.36,0.64,0.87,0.64,1.52c0,0.71-0.3,1.32-0.89,1.83s-1.47,0.77-2.63,0.77c-1.05,0-1.89-0.21-2.5-0.64
	C23.83,82.32,23.43,81.74,23.24,81.01z"/>
<path class="st2" d="M35.81,75.47v1.63h-1.4v3.12c0,0.63,0.01,1,0.04,1.1c0.03,0.1,0.09,0.19,0.18,0.26c0.09,0.07,0.21,0.1,0.35,0.1
	c0.19,0,0.46-0.07,0.82-0.2l0.17,1.59c-0.48,0.2-1.02,0.31-1.62,0.31c-0.37,0-0.7-0.06-1-0.19c-0.3-0.12-0.51-0.28-0.65-0.48
	c-0.14-0.2-0.23-0.46-0.29-0.8c-0.04-0.24-0.07-0.72-0.07-1.44v-3.37h-0.94v-1.63h0.94v-1.54l2.06-1.2v2.73H35.81z"/>
<path class="st2" d="M41.5,79.5c-0.26,0.09-0.68,0.19-1.25,0.31c-0.57,0.12-0.94,0.24-1.12,0.36c-0.27,0.19-0.4,0.43-0.4,0.72
	c0,0.29,0.11,0.53,0.32,0.74c0.21,0.21,0.49,0.31,0.82,0.31c0.37,0,0.72-0.12,1.06-0.36c0.25-0.18,0.41-0.41,0.49-0.68
	c0.05-0.18,0.08-0.51,0.08-1V79.5z M38.76,77.84L36.9,77.5c0.21-0.75,0.57-1.3,1.08-1.66c0.51-0.36,1.27-0.54,2.27-0.54
	c0.91,0,1.59,0.11,2.04,0.32c0.45,0.22,0.76,0.49,0.94,0.82c0.18,0.33,0.27,0.94,0.27,1.83l-0.02,2.39c0,0.68,0.03,1.18,0.1,1.51
	c0.07,0.32,0.19,0.67,0.37,1.04h-2.03c-0.05-0.14-0.12-0.34-0.2-0.61c-0.03-0.12-0.06-0.2-0.07-0.24c-0.35,0.34-0.72,0.6-1.12,0.77
	c-0.4,0.17-0.82,0.26-1.28,0.26c-0.8,0-1.42-0.22-1.88-0.65c-0.46-0.43-0.69-0.98-0.69-1.64c0-0.44,0.1-0.83,0.31-1.17
	c0.21-0.34,0.5-0.61,0.88-0.79c0.38-0.18,0.92-0.34,1.63-0.48c0.96-0.18,1.62-0.35,1.99-0.5v-0.2c0-0.39-0.1-0.67-0.29-0.84
	c-0.19-0.17-0.56-0.25-1.1-0.25c-0.36,0-0.65,0.07-0.85,0.22C39.05,77.23,38.89,77.48,38.76,77.84z"/>
<path class="st2" d="M47.49,83.22h-2.05v-7.74h1.9v1.1c0.33-0.52,0.62-0.86,0.88-1.03c0.26-0.17,0.56-0.25,0.89-0.25
	c0.47,0,0.92,0.13,1.35,0.39l-0.63,1.79c-0.35-0.22-0.67-0.34-0.96-0.34c-0.29,0-0.53,0.08-0.73,0.24c-0.2,0.16-0.36,0.44-0.47,0.86
	c-0.11,0.41-0.17,1.28-0.17,2.59V83.22z"/>
<path class="st2" d="M54.89,75.47v1.63h-1.4v3.12c0,0.63,0.01,1,0.04,1.1c0.03,0.1,0.09,0.19,0.18,0.26c0.09,0.07,0.21,0.1,0.35,0.1
	c0.19,0,0.46-0.07,0.82-0.2l0.17,1.59c-0.48,0.2-1.02,0.31-1.62,0.31c-0.37,0-0.7-0.06-1-0.19c-0.3-0.12-0.51-0.28-0.65-0.48
	c-0.14-0.2-0.23-0.46-0.29-0.8c-0.04-0.24-0.07-0.72-0.07-1.44v-3.37H50.5v-1.63h0.94v-1.54l2.06-1.2v2.73H54.89z"/>
<path class="st2" d="M61.41,83.22v-1.16c-0.28,0.41-0.65,0.74-1.11,0.98c-0.46,0.24-0.94,0.36-1.45,0.36c-0.52,0-0.99-0.11-1.4-0.34
	c-0.41-0.23-0.71-0.55-0.9-0.96c-0.18-0.41-0.28-0.98-0.28-1.71v-4.9h2.05v3.56c0,1.09,0.04,1.76,0.11,2
	c0.08,0.25,0.21,0.44,0.41,0.58c0.2,0.14,0.45,0.21,0.76,0.21c0.35,0,0.66-0.1,0.94-0.29c0.28-0.19,0.47-0.43,0.57-0.71
	c0.1-0.28,0.15-0.98,0.15-2.09v-3.27h2.05v7.74H61.41z"/>
<path class="st2" d="M67.4,79.21c0,0.87,0.17,1.51,0.52,1.93c0.34,0.42,0.77,0.62,1.26,0.62c0.48,0,0.87-0.19,1.19-0.57
	c0.32-0.38,0.47-1.01,0.47-1.88c0-0.81-0.16-1.41-0.49-1.81c-0.33-0.39-0.73-0.59-1.21-0.59c-0.5,0-0.92,0.19-1.25,0.58
	C67.56,77.88,67.4,78.46,67.4,79.21z M65.37,75.47h1.91v1.14c0.25-0.39,0.58-0.7,1.01-0.95c0.42-0.24,0.89-0.36,1.41-0.36
	c0.9,0,1.66,0.35,2.29,1.06c0.63,0.7,0.94,1.69,0.94,2.94c0,1.29-0.32,2.3-0.95,3.01c-0.63,0.72-1.4,1.07-2.3,1.07
	c-0.43,0-0.82-0.09-1.16-0.26c-0.35-0.17-0.71-0.46-1.1-0.87v3.9h-2.05V75.47z"/>
<path class="st2" d="M76.59,72.53v3.93c0.66-0.77,1.45-1.16,2.37-1.16c0.47,0,0.9,0.09,1.28,0.26c0.38,0.17,0.66,0.4,0.86,0.67
	c0.19,0.27,0.32,0.57,0.39,0.9c0.07,0.33,0.11,0.84,0.11,1.54v4.54h-2.05v-4.09c0-0.81-0.04-1.33-0.12-1.55
	c-0.08-0.22-0.22-0.39-0.41-0.52c-0.2-0.13-0.44-0.19-0.74-0.19c-0.34,0-0.64,0.08-0.91,0.25c-0.27,0.17-0.46,0.41-0.59,0.75
	c-0.12,0.33-0.19,0.82-0.19,1.48v3.88h-2.05V72.53H76.59z"/>
<path class="st2" d="M87.94,79.5c-0.26,0.09-0.68,0.19-1.25,0.31c-0.57,0.12-0.94,0.24-1.12,0.36c-0.27,0.19-0.4,0.43-0.4,0.72
	c0,0.29,0.11,0.53,0.32,0.74s0.49,0.31,0.82,0.31c0.37,0,0.72-0.12,1.06-0.36c0.25-0.18,0.41-0.41,0.49-0.68
	c0.05-0.18,0.08-0.51,0.08-1V79.5z M85.2,77.84l-1.86-0.34c0.21-0.75,0.57-1.3,1.08-1.66c0.51-0.36,1.27-0.54,2.27-0.54
	c0.91,0,1.59,0.11,2.04,0.32c0.45,0.22,0.76,0.49,0.94,0.82c0.18,0.33,0.27,0.94,0.27,1.83l-0.02,2.39c0,0.68,0.03,1.18,0.1,1.51
	c0.07,0.32,0.19,0.67,0.37,1.04h-2.03c-0.05-0.14-0.12-0.34-0.2-0.61c-0.03-0.12-0.06-0.2-0.07-0.24c-0.35,0.34-0.72,0.6-1.12,0.77
	c-0.4,0.17-0.82,0.26-1.28,0.26c-0.8,0-1.42-0.22-1.88-0.65c-0.46-0.43-0.69-0.98-0.69-1.64c0-0.44,0.1-0.83,0.31-1.17
	c0.21-0.34,0.5-0.61,0.88-0.79c0.38-0.18,0.92-0.34,1.63-0.48c0.96-0.18,1.62-0.35,1.99-0.5v-0.2c0-0.39-0.1-0.67-0.29-0.84
	c-0.19-0.17-0.56-0.25-1.1-0.25c-0.36,0-0.65,0.07-0.85,0.22C85.49,77.23,85.32,77.48,85.2,77.84z"/>
<path class="st2" d="M91.07,75.47h1.14v-0.58c0-0.65,0.07-1.14,0.21-1.46c0.14-0.32,0.39-0.58,0.77-0.78c0.37-0.2,0.84-0.3,1.41-0.3
	c0.58,0,1.15,0.09,1.71,0.26l-0.28,1.43c-0.33-0.08-0.64-0.12-0.94-0.12c-0.3,0-0.51,0.07-0.64,0.21c-0.13,0.14-0.19,0.4-0.19,0.8
	v0.55h1.53v1.61h-1.53v6.13h-2.05v-6.13h-1.14V75.47z"/>
<path class="st2" d="M101.54,78.68c-0.01-0.59-0.17-1.04-0.46-1.35c-0.29-0.31-0.65-0.46-1.06-0.46c-0.45,0-0.82,0.16-1.11,0.49
	c-0.29,0.33-0.43,0.77-0.43,1.33H101.54z M101.42,80.75l2.04,0.34c-0.26,0.75-0.68,1.32-1.24,1.71c-0.57,0.39-1.27,0.59-2.12,0.59
	c-1.35,0-2.34-0.44-2.99-1.32c-0.51-0.7-0.77-1.59-0.77-2.67c0-1.28,0.34-2.29,1.01-3.01c0.67-0.73,1.52-1.09,2.54-1.09
	c1.15,0,2.06,0.38,2.73,1.14c0.67,0.76,0.98,1.93,0.95,3.49h-5.13c0.01,0.61,0.18,1.08,0.5,1.42c0.32,0.34,0.71,0.51,1.18,0.51
	c0.32,0,0.59-0.09,0.81-0.26C101.14,81.42,101.31,81.14,101.42,80.75z"/>
<path class="st2" d="M112.28,83.22h-2.05v-3.95c0-0.84-0.04-1.38-0.13-1.62c-0.09-0.25-0.23-0.44-0.43-0.57
	c-0.2-0.14-0.43-0.2-0.71-0.2c-0.35,0-0.67,0.1-0.95,0.29c-0.28,0.19-0.48,0.45-0.58,0.77c-0.11,0.32-0.16,0.91-0.16,1.78v3.51
	h-2.05v-7.74h1.9v1.14c0.68-0.87,1.53-1.31,2.55-1.31c0.45,0,0.86,0.08,1.24,0.24c0.37,0.16,0.66,0.37,0.85,0.62
	c0.19,0.25,0.33,0.54,0.4,0.86c0.07,0.32,0.11,0.78,0.11,1.38V83.22z"/>
<rect x="114.36" y="81.17" class="st2" width="2.05" height="2.05"/>
<path class="st2" d="M117.78,81.01l2.06-0.31c0.09,0.4,0.26,0.7,0.53,0.91c0.27,0.21,0.64,0.31,1.12,0.31c0.53,0,0.93-0.1,1.2-0.29
	c0.18-0.14,0.27-0.32,0.27-0.55c0-0.16-0.05-0.28-0.15-0.39c-0.1-0.1-0.33-0.19-0.69-0.27c-1.65-0.36-2.7-0.7-3.14-1
	c-0.61-0.42-0.92-1-0.92-1.74c0-0.67,0.26-1.23,0.79-1.69c0.53-0.46,1.35-0.69,2.46-0.69c1.06,0,1.85,0.17,2.36,0.52
	c0.51,0.35,0.87,0.86,1.06,1.53l-1.93,0.36c-0.08-0.3-0.24-0.53-0.47-0.69s-0.56-0.24-0.99-0.24c-0.54,0-0.93,0.08-1.16,0.23
	c-0.15,0.11-0.23,0.25-0.23,0.42c0,0.15,0.07,0.27,0.2,0.37c0.19,0.14,0.82,0.33,1.91,0.58c1.09,0.25,1.85,0.55,2.29,0.91
	c0.43,0.36,0.64,0.87,0.64,1.52c0,0.71-0.3,1.32-0.89,1.83c-0.59,0.51-1.47,0.77-2.63,0.77c-1.05,0-1.89-0.21-2.5-0.64
	C118.37,82.32,117.97,81.74,117.78,81.01z"/>
<path class="st2" d="M128.85,72.53v3.93c0.66-0.77,1.45-1.16,2.37-1.16c0.47,0,0.9,0.09,1.27,0.26c0.38,0.17,0.67,0.4,0.86,0.67
	c0.19,0.27,0.32,0.57,0.39,0.9c0.07,0.33,0.11,0.84,0.11,1.54v4.54h-2.05v-4.09c0-0.81-0.04-1.33-0.12-1.55
	c-0.08-0.22-0.21-0.39-0.41-0.52c-0.2-0.13-0.44-0.19-0.74-0.19c-0.34,0-0.64,0.08-0.91,0.25s-0.46,0.41-0.59,0.75
	c-0.12,0.33-0.19,0.82-0.19,1.48v3.88h-2.05V72.53H128.85z"/>
</svg>
